<mxfile host="app.diagrams.net" agent="Mozilla/5.0 (Windows NT 10.0; Win64; x64) AppleWebKit/537.36 (KHTML, like Gecko) Chrome/136.0.0.0 Safari/537.36" version="27.0.4">
  <diagram name="Page-1" id="MGUYogNoVj9ggv2rBeZF">
    <mxGraphModel dx="983" dy="546" grid="1" gridSize="10" guides="1" tooltips="1" connect="1" arrows="1" fold="1" page="1" pageScale="1" pageWidth="350" pageHeight="625" background="#ffffff" math="0" shadow="0">
      <root>
        <mxCell id="0" />
        <mxCell id="1" parent="0" />
        <mxCell id="UgLzqwO8WUcNo-VI_L2k-13" value="" style="shape=rect;fillColor=#F6F6F6;strokeColor=none;" vertex="1" parent="1">
          <mxGeometry y="20" width="290" height="50" as="geometry" />
        </mxCell>
        <mxCell id="UgLzqwO8WUcNo-VI_L2k-14" value="" style="html=1;strokeWidth=1;shadow=0;dashed=0;shape=mxgraph.ios7ui.marginRect;rx=3;ry=3;rectMargin=5;fillColor=#E4E4E4;strokeColor=none;" vertex="1" parent="UgLzqwO8WUcNo-VI_L2k-13">
          <mxGeometry width="290" height="50" as="geometry" />
        </mxCell>
        <mxCell id="UgLzqwO8WUcNo-VI_L2k-15" value="&lt;font style=&quot;font-size: 10px;&quot;&gt;Search&lt;/font&gt;" style="shape=mxgraph.ios7.icons.looking_glass;strokeColor=#878789;fillColor=none;fontColor=#878789;labelPosition=right;verticalLabelPosition=middle;align=left;verticalAlign=middle;fontSize=6;fontStyle=0;spacingTop=2;sketch=0;html=1;" vertex="1" parent="UgLzqwO8WUcNo-VI_L2k-13">
          <mxGeometry x="0.5" y="0.5" width="16.5" height="16.5" relative="1" as="geometry">
            <mxPoint x="-27" y="-8" as="offset" />
          </mxGeometry>
        </mxCell>
        <mxCell id="UgLzqwO8WUcNo-VI_L2k-18" value="" style="sketch=0;pointerEvents=1;shadow=0;dashed=0;html=1;strokeColor=none;labelPosition=center;verticalLabelPosition=bottom;verticalAlign=top;align=center;fillColor=#505050;shape=mxgraph.mscae.enterprise.settings" vertex="1" parent="1">
          <mxGeometry x="300" y="25" width="40" height="40" as="geometry" />
        </mxCell>
        <mxCell id="UgLzqwO8WUcNo-VI_L2k-20" value="&amp;nbsp;Sport" style="dashed=0;labelPosition=right;align=left;shape=mxgraph.gmdl.checkbox;strokeColor=none;fillColor=#009587;strokeWidth=2;aspect=fixed;sketch=0;html=1;" vertex="1" parent="1">
          <mxGeometry x="50" y="90" width="16" height="16" as="geometry" />
        </mxCell>
        <mxCell id="UgLzqwO8WUcNo-VI_L2k-23" value="&amp;nbsp;E-Sport" style="dashed=0;labelPosition=right;align=left;shape=mxgraph.gmdl.checkbox;strokeColor=#666666;fillColor=none;strokeWidth=2;aspect=fixed;sketch=0;html=1;" vertex="1" parent="1">
          <mxGeometry x="160" y="90" width="16" height="16" as="geometry" />
        </mxCell>
        <mxCell id="UgLzqwO8WUcNo-VI_L2k-25" value="" style="endArrow=none;html=1;rounded=0;" edge="1" parent="1">
          <mxGeometry width="50" height="50" relative="1" as="geometry">
            <mxPoint y="120" as="sourcePoint" />
            <mxPoint x="349" y="120" as="targetPoint" />
          </mxGeometry>
        </mxCell>
        <mxCell id="UgLzqwO8WUcNo-VI_L2k-28" value="" style="endArrow=none;html=1;rounded=0;" edge="1" parent="1">
          <mxGeometry width="50" height="50" relative="1" as="geometry">
            <mxPoint y="80" as="sourcePoint" />
            <mxPoint x="349" y="80" as="targetPoint" />
          </mxGeometry>
        </mxCell>
        <mxCell id="UgLzqwO8WUcNo-VI_L2k-31" value="" style="shape=rect;strokeColor=default;fillColor=default;gradientColor=none;shadow=0;sketch=0;hachureGap=4;pointerEvents=0;fontFamily=Architects Daughter;fontSource=https%3A%2F%2Ffonts.googleapis.com%2Fcss%3Ffamily%3DArchitects%2BDaughter;fontSize=20;" vertex="1" parent="1">
          <mxGeometry y="120" width="350" height="60" as="geometry" />
        </mxCell>
        <mxCell id="UgLzqwO8WUcNo-VI_L2k-32" value="&lt;font style=&quot;font-size: 12px;&quot;&gt;Piłka nożna Niemcy - Francja&lt;/font&gt;&lt;div&gt;&lt;font style=&quot;font-size: 12px;&quot;&gt;25.06&lt;/font&gt;&lt;/div&gt;" style="shape=ellipse;strokeColor=none;fillColor=#007FF8;fontSize=8;fontColor=#000000;align=left;spacingTop=1;spacingLeft=2;labelPosition=right;verticalLabelPosition=middle;verticalAlign=middle;sketch=0;hachureGap=4;pointerEvents=0;fontFamily=Verdana;html=1;" vertex="1" parent="UgLzqwO8WUcNo-VI_L2k-31">
          <mxGeometry width="30" height="30" relative="1" as="geometry">
            <mxPoint x="10" y="10" as="offset" />
          </mxGeometry>
        </mxCell>
        <mxCell id="UgLzqwO8WUcNo-VI_L2k-33" value="25.06.2025&lt;div&gt;11:40&lt;/div&gt;" style="shape=mxgraph.ios7.misc.right;strokeColor=#666666;labelPosition=left;verticalLabelPosition=middle;align=right;verticalAlign=middle;fontSize=8;spacingRight=4;fontColor=#999999;sketch=0;hachureGap=4;pointerEvents=0;fontFamily=Verdana;html=1;" vertex="1" parent="UgLzqwO8WUcNo-VI_L2k-31">
          <mxGeometry x="1" width="27" height="40" relative="1" as="geometry">
            <mxPoint x="-33" y="10" as="offset" />
          </mxGeometry>
        </mxCell>
        <mxCell id="UgLzqwO8WUcNo-VI_L2k-41" value="&amp;nbsp;Inne" style="dashed=0;labelPosition=right;align=left;shape=mxgraph.gmdl.checkbox;strokeColor=none;fillColor=#009587;strokeWidth=2;aspect=fixed;sketch=0;html=1;" vertex="1" parent="1">
          <mxGeometry x="284" y="90" width="16" height="16" as="geometry" />
        </mxCell>
        <mxCell id="UgLzqwO8WUcNo-VI_L2k-42" value="" style="shape=rect;strokeColor=default;fillColor=default;gradientColor=none;shadow=0;sketch=0;hachureGap=4;pointerEvents=0;fontFamily=Architects Daughter;fontSource=https%3A%2F%2Ffonts.googleapis.com%2Fcss%3Ffamily%3DArchitects%2BDaughter;fontSize=20;" vertex="1" parent="1">
          <mxGeometry y="180" width="350" height="60" as="geometry" />
        </mxCell>
        <mxCell id="UgLzqwO8WUcNo-VI_L2k-43" value="&lt;span style=&quot;font-size: 12px;&quot;&gt;Maraton w Hiszpanii&lt;/span&gt;&lt;div&gt;&lt;span style=&quot;font-size: 12px;&quot;&gt;02.07&lt;/span&gt;&lt;/div&gt;" style="shape=ellipse;strokeColor=none;fillColor=#007FF8;fontSize=8;fontColor=#000000;align=left;spacingTop=1;spacingLeft=2;labelPosition=right;verticalLabelPosition=middle;verticalAlign=middle;sketch=0;hachureGap=4;pointerEvents=0;fontFamily=Verdana;html=1;" vertex="1" parent="UgLzqwO8WUcNo-VI_L2k-42">
          <mxGeometry width="30" height="30" relative="1" as="geometry">
            <mxPoint x="10" y="10" as="offset" />
          </mxGeometry>
        </mxCell>
        <mxCell id="UgLzqwO8WUcNo-VI_L2k-44" value="02.07.2025&lt;div&gt;17:00&lt;/div&gt;" style="shape=mxgraph.ios7.misc.right;strokeColor=#666666;labelPosition=left;verticalLabelPosition=middle;align=right;verticalAlign=middle;fontSize=8;spacingRight=4;fontColor=#999999;sketch=0;hachureGap=4;pointerEvents=0;fontFamily=Verdana;html=1;" vertex="1" parent="UgLzqwO8WUcNo-VI_L2k-42">
          <mxGeometry x="1" width="27" height="40" relative="1" as="geometry">
            <mxPoint x="-33" y="10" as="offset" />
          </mxGeometry>
        </mxCell>
        <mxCell id="UgLzqwO8WUcNo-VI_L2k-51" value="" style="shape=rect;strokeColor=default;fillColor=default;gradientColor=none;shadow=0;sketch=0;hachureGap=4;pointerEvents=0;fontFamily=Architects Daughter;fontSource=https%3A%2F%2Ffonts.googleapis.com%2Fcss%3Ffamily%3DArchitects%2BDaughter;fontSize=20;" vertex="1" parent="1">
          <mxGeometry y="240" width="350" height="60" as="geometry" />
        </mxCell>
        <mxCell id="UgLzqwO8WUcNo-VI_L2k-52" value="&lt;span style=&quot;font-size: 12px;&quot;&gt;Mistrzostwa Polski w Szachach&lt;/span&gt;&lt;div&gt;&lt;span style=&quot;font-size: 12px;&quot;&gt;14.06&lt;/span&gt;&lt;/div&gt;" style="shape=ellipse;strokeColor=none;fillColor=#007FF8;fontSize=8;fontColor=#000000;align=left;spacingTop=1;spacingLeft=2;labelPosition=right;verticalLabelPosition=middle;verticalAlign=middle;sketch=0;hachureGap=4;pointerEvents=0;fontFamily=Verdana;html=1;" vertex="1" parent="UgLzqwO8WUcNo-VI_L2k-51">
          <mxGeometry width="30" height="30" relative="1" as="geometry">
            <mxPoint x="10" y="10" as="offset" />
          </mxGeometry>
        </mxCell>
        <mxCell id="UgLzqwO8WUcNo-VI_L2k-53" value="14.06.2025&lt;div&gt;15:30&lt;/div&gt;" style="shape=mxgraph.ios7.misc.right;strokeColor=#666666;labelPosition=left;verticalLabelPosition=middle;align=right;verticalAlign=middle;fontSize=8;spacingRight=4;fontColor=#999999;sketch=0;hachureGap=4;pointerEvents=0;fontFamily=Verdana;html=1;" vertex="1" parent="UgLzqwO8WUcNo-VI_L2k-51">
          <mxGeometry x="1" width="27" height="40" relative="1" as="geometry">
            <mxPoint x="-33" y="10" as="offset" />
          </mxGeometry>
        </mxCell>
        <mxCell id="UgLzqwO8WUcNo-VI_L2k-54" value="" style="shape=rect;strokeColor=default;fillColor=default;gradientColor=none;shadow=0;sketch=0;hachureGap=4;pointerEvents=0;fontFamily=Architects Daughter;fontSource=https%3A%2F%2Ffonts.googleapis.com%2Fcss%3Ffamily%3DArchitects%2BDaughter;fontSize=20;" vertex="1" parent="1">
          <mxGeometry y="420" width="350" height="60" as="geometry" />
        </mxCell>
        <mxCell id="UgLzqwO8WUcNo-VI_L2k-55" value="&lt;span style=&quot;font-size: 12px;&quot;&gt;Eurowizja 2025&lt;/span&gt;" style="shape=ellipse;strokeColor=none;fillColor=#7F00FF;fontSize=8;fontColor=#000000;align=left;spacingTop=1;spacingLeft=2;labelPosition=right;verticalLabelPosition=middle;verticalAlign=middle;sketch=0;hachureGap=4;pointerEvents=0;fontFamily=Verdana;html=1;" vertex="1" parent="UgLzqwO8WUcNo-VI_L2k-54">
          <mxGeometry width="30" height="30" relative="1" as="geometry">
            <mxPoint x="10" y="10" as="offset" />
          </mxGeometry>
        </mxCell>
        <mxCell id="UgLzqwO8WUcNo-VI_L2k-56" value="13.05.2025&lt;div&gt;21:00&lt;/div&gt;" style="shape=mxgraph.ios7.misc.right;strokeColor=#666666;labelPosition=left;verticalLabelPosition=middle;align=right;verticalAlign=middle;fontSize=8;spacingRight=4;fontColor=#999999;sketch=0;hachureGap=4;pointerEvents=0;fontFamily=Verdana;html=1;" vertex="1" parent="UgLzqwO8WUcNo-VI_L2k-54">
          <mxGeometry x="1" width="27" height="40" relative="1" as="geometry">
            <mxPoint x="-33" y="10" as="offset" />
          </mxGeometry>
        </mxCell>
        <mxCell id="UgLzqwO8WUcNo-VI_L2k-57" value="" style="shape=rect;strokeColor=default;fillColor=default;gradientColor=none;shadow=0;sketch=0;hachureGap=4;pointerEvents=0;fontFamily=Architects Daughter;fontSource=https%3A%2F%2Ffonts.googleapis.com%2Fcss%3Ffamily%3DArchitects%2BDaughter;fontSize=20;" vertex="1" parent="1">
          <mxGeometry y="300" width="350" height="60" as="geometry" />
        </mxCell>
        <mxCell id="UgLzqwO8WUcNo-VI_L2k-58" value="&lt;span style=&quot;font-size: 12px;&quot;&gt;Siatkówka kobiet - Paryż&lt;/span&gt;&lt;div&gt;&lt;span style=&quot;font-size: 12px;&quot;&gt;13.06&lt;/span&gt;&lt;/div&gt;" style="shape=ellipse;strokeColor=none;fillColor=#007FF8;fontSize=8;fontColor=#000000;align=left;spacingTop=1;spacingLeft=2;labelPosition=right;verticalLabelPosition=middle;verticalAlign=middle;sketch=0;hachureGap=4;pointerEvents=0;fontFamily=Verdana;html=1;" vertex="1" parent="UgLzqwO8WUcNo-VI_L2k-57">
          <mxGeometry width="30" height="30" relative="1" as="geometry">
            <mxPoint x="10" y="10" as="offset" />
          </mxGeometry>
        </mxCell>
        <mxCell id="UgLzqwO8WUcNo-VI_L2k-59" value="13.06.2025&lt;div&gt;13:10&lt;/div&gt;" style="shape=mxgraph.ios7.misc.right;strokeColor=#666666;labelPosition=left;verticalLabelPosition=middle;align=right;verticalAlign=middle;fontSize=8;spacingRight=4;fontColor=#999999;sketch=0;hachureGap=4;pointerEvents=0;fontFamily=Verdana;html=1;" vertex="1" parent="UgLzqwO8WUcNo-VI_L2k-57">
          <mxGeometry x="1" width="27" height="40" relative="1" as="geometry">
            <mxPoint x="-33" y="10" as="offset" />
          </mxGeometry>
        </mxCell>
        <mxCell id="UgLzqwO8WUcNo-VI_L2k-60" value="" style="shape=rect;strokeColor=default;fillColor=default;gradientColor=none;shadow=0;sketch=0;hachureGap=4;pointerEvents=0;fontFamily=Architects Daughter;fontSource=https%3A%2F%2Ffonts.googleapis.com%2Fcss%3Ffamily%3DArchitects%2BDaughter;fontSize=20;" vertex="1" parent="1">
          <mxGeometry y="360" width="350" height="60" as="geometry" />
        </mxCell>
        <mxCell id="UgLzqwO8WUcNo-VI_L2k-61" value="&lt;span style=&quot;font-size: 12px;&quot;&gt;Mecz NBA w Chicago&lt;/span&gt;&lt;div&gt;&lt;span style=&quot;font-size: 12px;&quot;&gt;12.08&lt;/span&gt;&lt;/div&gt;" style="shape=ellipse;strokeColor=none;fillColor=#007FF8;fontSize=8;fontColor=#000000;align=left;spacingTop=1;spacingLeft=2;labelPosition=right;verticalLabelPosition=middle;verticalAlign=middle;sketch=0;hachureGap=4;pointerEvents=0;fontFamily=Verdana;html=1;" vertex="1" parent="UgLzqwO8WUcNo-VI_L2k-60">
          <mxGeometry width="30" height="30" relative="1" as="geometry">
            <mxPoint x="10" y="10" as="offset" />
          </mxGeometry>
        </mxCell>
        <mxCell id="UgLzqwO8WUcNo-VI_L2k-62" value="12.08.2025&lt;div&gt;12:00&lt;/div&gt;" style="shape=mxgraph.ios7.misc.right;strokeColor=#666666;labelPosition=left;verticalLabelPosition=middle;align=right;verticalAlign=middle;fontSize=8;spacingRight=4;fontColor=#999999;sketch=0;hachureGap=4;pointerEvents=0;fontFamily=Verdana;html=1;" vertex="1" parent="UgLzqwO8WUcNo-VI_L2k-60">
          <mxGeometry x="1" width="27" height="40" relative="1" as="geometry">
            <mxPoint x="-33" y="10" as="offset" />
          </mxGeometry>
        </mxCell>
        <mxCell id="UgLzqwO8WUcNo-VI_L2k-46" value="" style="html=1;verticalLabelPosition=bottom;labelBackgroundColor=#ffffff;verticalAlign=top;shadow=0;dashed=0;strokeWidth=2;shape=mxgraph.ios7.misc.scroll_(vertical);fillColor=#a0a0a0;movable=1;resizable=1;rotatable=1;deletable=1;editable=1;locked=0;connectable=1;" vertex="1" parent="1">
          <mxGeometry x="340" y="230" width="6" height="40" as="geometry" />
        </mxCell>
        <mxCell id="UgLzqwO8WUcNo-VI_L2k-75" value="" style="shape=rect;strokeColor=default;fillColor=default;gradientColor=none;shadow=0;sketch=0;hachureGap=4;pointerEvents=0;fontFamily=Architects Daughter;fontSource=https%3A%2F%2Ffonts.googleapis.com%2Fcss%3Ffamily%3DArchitects%2BDaughter;fontSize=20;" vertex="1" parent="1">
          <mxGeometry y="480" width="350" height="80" as="geometry" />
        </mxCell>
        <mxCell id="UgLzqwO8WUcNo-VI_L2k-76" value="" style="shape=ellipse;strokeColor=none;fillColor=#7F00FF;fontSize=8;fontColor=#000000;align=left;spacingTop=1;spacingLeft=2;labelPosition=right;verticalLabelPosition=middle;verticalAlign=middle;sketch=0;hachureGap=4;pointerEvents=0;fontFamily=Verdana;html=1;" vertex="1" parent="UgLzqwO8WUcNo-VI_L2k-75">
          <mxGeometry width="30" height="30" relative="1" as="geometry">
            <mxPoint x="10" y="10" as="offset" />
          </mxGeometry>
        </mxCell>
        <mxCell id="UgLzqwO8WUcNo-VI_L2k-77" value="13.05.2025&lt;div&gt;21:00&lt;/div&gt;" style="shape=mxgraph.ios7.misc.right;strokeColor=#666666;labelPosition=left;verticalLabelPosition=middle;align=right;verticalAlign=middle;fontSize=8;spacingRight=4;fontColor=#999999;sketch=0;hachureGap=4;pointerEvents=0;fontFamily=Verdana;html=1;" vertex="1" parent="UgLzqwO8WUcNo-VI_L2k-75">
          <mxGeometry x="1" width="27" height="40" relative="1" as="geometry">
            <mxPoint x="-33" y="10" as="offset" />
          </mxGeometry>
        </mxCell>
        <mxCell id="UgLzqwO8WUcNo-VI_L2k-1" value="" style="strokeWidth=1;html=1;shadow=0;dashed=0;shape=mxgraph.android.rrect;rSize=0;fillColor=#eeeeee;strokeColor=default;" vertex="1" parent="UgLzqwO8WUcNo-VI_L2k-75">
          <mxGeometry y="20" width="350" height="60" as="geometry" />
        </mxCell>
        <mxCell id="UgLzqwO8WUcNo-VI_L2k-63" value="" style="group" vertex="1" connectable="0" parent="UgLzqwO8WUcNo-VI_L2k-1">
          <mxGeometry width="345.33333333333337" height="60" as="geometry" />
        </mxCell>
        <mxCell id="UgLzqwO8WUcNo-VI_L2k-2" value="Gry losowe" style="strokeWidth=1;html=1;shadow=0;dashed=0;shape=mxgraph.android.anchor;fontStyle=1;fontColor=#666666;" vertex="1" parent="UgLzqwO8WUcNo-VI_L2k-63">
          <mxGeometry x="116.91866666666667" width="116.66666666666667" height="60" as="geometry" />
        </mxCell>
        <mxCell id="UgLzqwO8WUcNo-VI_L2k-3" value="Zakłady" style="strokeWidth=1;html=1;shadow=0;dashed=0;shape=mxgraph.android.rrect;rSize=0;fontStyle=1;fillColor=#44c5f5;strokeColor=default;fontColor=#ffffff;" vertex="1" parent="UgLzqwO8WUcNo-VI_L2k-63">
          <mxGeometry width="112" height="60" as="geometry" />
        </mxCell>
        <mxCell id="UgLzqwO8WUcNo-VI_L2k-5" value="Konto" style="strokeWidth=0;html=1;shadow=0;dashed=0;shape=mxgraph.android.anchor;fontStyle=1;fontColor=#666666;strokeColor=default;perimeterSpacing=0;" vertex="1" parent="UgLzqwO8WUcNo-VI_L2k-63">
          <mxGeometry x="233.33333333333334" width="112" height="60" as="geometry" />
        </mxCell>
        <mxCell id="UgLzqwO8WUcNo-VI_L2k-8" value="" style="shape=line;strokeColor=#666666;direction=south;" vertex="1" parent="UgLzqwO8WUcNo-VI_L2k-63">
          <mxGeometry x="224" width="18.918666666666667" height="60" as="geometry" />
        </mxCell>
        <mxCell id="UgLzqwO8WUcNo-VI_L2k-17" value="" style="shape=line;strokeColor=#666666;direction=south;" vertex="1" parent="UgLzqwO8WUcNo-VI_L2k-63">
          <mxGeometry x="102.66666666666667" width="18.918666666666667" height="60" as="geometry" />
        </mxCell>
      </root>
    </mxGraphModel>
  </diagram>
</mxfile>
